<?xml version="1.0" encoding="UTF-8"?>
<!DOCTYPE svg PUBLIC "-//W3C//DTD SVG 1.1//EN" "http://www.w3.org/Graphics/SVG/1.1/DTD/svg11.dtd">
<svg version="1.1" xmlns="http://www.w3.org/2000/svg" width="998px" height="622px" viewBox="20 92 998 622">
<g>
	<path fill="#039BD3" d="M383.95,115.57c0,0,44.72,43.406,59.188,53.928c11.316,8.231,45.975,37.388,61.159,54.731   c4.228,4.83,6.949,8.742,7.236,11.033c1.316,10.522,1.316,3.946,6.576,2.631c5.262-1.315,1.316,281.474,1.316,281.474   s-7.893,5.262-14.469-7.893c-6.576-13.152-1.315,72.342-1.315,81.55c0,9.206-2.63,14.468-11.838,17.098   c-9.207,2.631-5.261,15.784-19.729,21.046c-14.468,5.261-28.937-6.577-35.513,0c-6.576,6.576-9.208,18.414-24.991,14.468   c-15.783-3.945-15.788-10.53-36.828-2.631c-13.6,5.107-22.36-26.306-30.252-24.99c-7.891,1.315-17.098,6.576-24.99-2.631   c-7.892-9.207-14.468-34.197-26.306-34.197c-11.838,0-13.153-17.1-18.414-28.938c-5.262-11.837-13.154-22.36-13.154-22.36   s3.946-14.468,2.631-23.674c-1.315-9.208-9.207-22.36-2.631-36.829c6.577-14.469,11.838-19.729,11.838-19.729l11.838-15.783   c0,0-38.144,24.99-49.981,18.414c-11.837-6.576-2.63-2.631-11.837-6.576c-9.207-3.946-7.892-10.523-18.415-14.47   c-10.522-3.944-21.044-3.944-24.99-13.152c-3.946-9.207,5.261-15.783-6.577-19.729c-11.837-3.946-14.468-7.892-24.991-21.044   c-10.522-13.154-17.099-14.468-21.044-14.468c-3.946,0-11.838-21.045-23.676-21.045s-19.729-7.892-26.306-10.522   c-6.577-2.63-27.621-15.784-28.937-22.36s-5.262-15.784-5.262-15.784s6.577-13.153,0-21.044   c-6.576-7.892,7.892-24.991,6.577-28.937c-1.315-3.946,9.207-7.892,14.468-10.523c5.261-2.63,65.765-23.675,199.925-19.729   c134.161,3.946,223.601,63.134,223.601,63.134l15.784-13.153c0,0-9.207-5.261-1.314-14.468c0,0,8.33-7.453,5.7-13.153   c-2.631-5.701,0.442-14.471-66.202-63.573C369.044,112.94,379.125,112.064,383.95,115.57z"/>
	<path fill="#006AAD" d="M517.668,237.894c-5.262,1.315-5.262,7.892-6.576-2.631c-0.288-2.292-3.009-6.204-7.237-11.033   c-15.186-17.343-49.843-46.5-61.159-54.731c-14.468-10.522-59.188-53.928-59.188-53.928c-4.824-3.506-14.905-2.63,57.876,56.119   c66.643,49.103,63.57,57.873,66.202,63.573c2.63,5.701-5.701,13.153-5.701,13.153c-7.892,9.207,1.315,14.468,1.315,14.468   l-15.784,13.153c0,0-89.44-59.188-223.601-63.134c-134.16-3.946-194.664,17.099-199.925,19.729   c-5.261,2.631-15.784,6.577-14.469,10.523S36.27,264.2,42.846,272.091s0,21.044,0,21.044s3.946,9.208,5.261,15.784   c1.315,6.576,22.361,19.73,28.937,22.36c6.576,2.63,14.468,10.522,26.306,10.522c11.838,0,19.73,21.045,23.676,21.045   c3.945,0,10.522,1.314,21.044,14.468c10.522,13.152,13.153,17.098,24.991,21.044s2.631,10.522,6.577,19.729   c3.946,9.208,14.468,9.208,24.99,13.152c10.523,3.946,9.208,10.523,18.414,14.47c9.208,3.945,0,0,11.838,6.576   s49.981-18.414,49.981-18.414l-11.838,15.783c0,0-5.261,5.261-11.837,19.729s1.315,27.621,2.63,36.829   c1.315,9.206-2.63,23.674-2.63,23.674s7.892,10.523,13.153,22.36c5.261,11.838,6.577,28.938,18.415,28.938   c11.837,0,18.414,24.99,26.306,34.197c7.892,9.207,17.099,3.946,24.991,2.631c7.892-1.315,16.41,29.398,30.251,24.99   c19.29-6.145,21.045-1.314,36.828,2.631c15.784,3.946,18.415-7.892,24.991-14.468c6.577-6.577,21.044,5.261,35.513,0   c14.469-5.262,10.523-18.415,19.729-21.046c9.208-2.63,11.838-7.892,11.838-17.098c0-9.208-5.262-94.702,1.316-81.55   c6.576,13.154,14.468,7.893,14.468,7.893S522.93,236.578,517.668,237.894z M48.983,262.013c0-2.191,1.754-3.506,1.754-3.506   C52.49,260.259,48.983,264.204,48.983,262.013z M57.75,250.615c-3.507,0.437-1.315-4.825-1.315-4.825   C59.066,246.669,61.257,250.178,57.75,250.615z M479.084,341.81c0.877,3.946-13.152,36.389-13.152,36.389   s-5.698,15.347-8.768,23.239s-8.77,16.657-15.346,25.427c-6.577,8.771-49.104,57.435-50.857,61.819   c-1.755,4.385-11.401,12.276-18.854,7.017c-7.452-5.262-0.873-13.15,2.194-16.66c3.068-3.51,31.128-49.981,33.758-56.558   c2.631-6.576,12.274-26.742,12.714-38.144c0.439-11.4,3.51-12.714,4.825-14.908c1.314-2.194,37.265-30.252,37.265-30.252   S478.209,337.864,479.084,341.81z M446.202,536.029c-9.206,0.439-14.907-11.398-15.346-14.029   c-0.439-2.63,1.315-17.537,3.509-24.554c2.194-7.016,0.876-42.966,3.946-49.542c3.07-6.577,14.469-21.483,14.469-21.483   c5.26,14.028,4.821,96.455,5.26,103.472C458.48,536.908,455.41,535.59,446.202,536.029z M397.097,379.514   c11.838-7.453,25.43-14.029,22.361-8.768c-3.07,5.26-25.428,31.127-25.428,31.127s-36.392,38.144-44.72,47.351   s-8.771,0-10.522-2.631c-1.752-2.63-2.631-16.223-2.631-16.223C342.733,418.971,385.26,386.967,397.097,379.514z M379.562,378.638   c15.784-6.577,56.994-30.691,56.994-30.691c-2.63,2.192-23.236,23.239-32.004,24.554c-8.768,1.316-40.774,25.428-49.105,29.813   s-13.153,7.016-15.784,2.191S363.778,385.215,379.562,378.638z M353.692,455.362c0,0,31.349-35.509,33.322-38.144   c0,0,30.252-39.02,28.937-28.937c-3.07,24.112-42.965,80.672-49.542,89.88c-6.576,9.206-10.522,0.875-10.522,0.875   s-5.7-6.137-7.455-11.837C346.677,461.499,353.692,455.362,353.692,455.362z M354.134,240.963c0,0,4.388,0,3.509,2.63   c-0.878,2.631-2.63,4.383-2.63,4.383S349.749,242.718,354.134,240.963z M347.997,254.117c4.385,2.194,9.207-4.825,22.8-7.456   c13.592-2.63,62.695,24.991,76.287,32.446c13.592,7.455,0.437,9.644,0.437,9.644s-33.318,1.315-37.264,2.631   c-3.946,1.315-93.826,1.315-96.457,1.315c-2.63,0-19.29,0.439-33.758-3.067c-14.468-3.507-41.213,4.382-61.819,7.013   c-20.605,2.631-14.468-11.837-14.468-11.837s12.274-8.768,17.536-11.398c5.261-2.631,74.096-17.539,79.357-19.29   c5.262-1.752,24.115-11.838,29.812-13.153S343.612,251.922,347.997,254.117z M219.535,349.259   c6.576-7.892,68.396-39.019,84.619-45.156c16.223-6.138,45.596-2.194,45.596-2.194c21.921-1.316,1.755,7.454-2.191,8.77   c-3.946,1.315-60.064,32.004-66.205,35.95c-6.14,3.946-48.227,33.761-56.994,35.076c-8.768,1.315-10.085-12.716-11.838-14.907   C210.77,364.606,212.958,357.151,219.535,349.259z M210.767,325.58c0-4.386-4.387-11.296-3.506-12.274   c3.946-4.383,1.754-1.755,17.538-8.332s48.227-10.522,59.189-7.452c10.961,3.07,3.067,7.452,3.067,7.452   s-56.995,28.06-61.379,31.128c-4.385,3.067-8.331,0.878-10.962,0C212.083,335.223,210.767,329.964,210.767,325.58z    M281.793,236.578c0,0,24.991,0.876,26.745,3.946c1.755,3.07-7.016,10.083-7.016,10.083s-69.269,16.663-75.408,15.347   c-6.14-1.315-17.102-6.579-3.51-12.716C236.197,247.101,281.793,236.578,281.793,236.578z M205.506,230.441   c0,0,11.401-1.755,12.277,2.191c0.876,3.946,2.192,6.574,0,7.453c-2.191,0.878-13.59,8.77-17.975,3.509   C195.423,238.333,197.614,231.756,205.506,230.441z M180.515,268.584c1.754-3.07,10.961-10.085,10.961-10.085s8.768-7.016,10.522,0   c1.755,7.016-0.439,10.083-1.754,10.522s-7.892,6.14-7.892,6.14S178.761,271.654,180.515,268.584z M114.75,229.562   c2.631-2.63,9.207-2.63,9.207-2.63s23.236-2.628,23.676,0.878c0.439,3.507-16.66,6.574-19.29,7.014   C125.712,235.263,112.119,232.193,114.75,229.562z M72.661,237.894c0,0,14.904-7.889,15.783-6.138   c0.878,1.752-0.437,9.647-8.768,11.838C71.345,245.785,68.715,241.4,72.661,237.894z M66.963,264.2   c-4.385-2.631,1.315-6.138,1.315-6.138s11.837-5.698,11.398-2.63C79.237,258.499,71.348,266.83,66.963,264.2z M80.116,286.12   c-1.315,7.892-10.083,9.209-10.522,4.824c-0.439-4.385,3.068-7.892,3.068-7.892S81.431,278.229,80.116,286.12z M84.938,272.091   c2.631-6.577,14.908-14.029,20.169-15.784c5.261-1.755,21.044-8.768,26.306-6.137c5.261,2.63,6.574,9.205,3.067,12.274   c-3.507,3.07-20.169,15.344-23.676,17.099c-3.506,1.754-6.134,7.016-12.274,7.016C98.53,286.56,82.307,278.668,84.938,272.091z    M101.161,315.496c-4.385,4.822-16.223,1.312-13.592-4.384c2.631-5.698,11.398-3.946,11.398-3.946S105.546,310.674,101.161,315.496   z M106.859,301.028c-3.07-3.946-7.014-4.822-7.014-4.822c-1.315-1.315-0.439-2.194,2.191-5.261   c2.63-3.067,17.975-8.771,28.498-14.031c10.522-5.261,26.306-7.452,31.13-1.315c4.824,6.137-5.701,16.223-5.701,16.223   s-23.236,15.783-26.745,18.415c-3.509,2.63-10.522,2.63-15.784,0.876C108.174,309.356,109.928,304.974,106.859,301.028z    M133.165,337.856c-4.383-2.191-3.946-3.506-8.768-5.261c-4.822-1.755-4.386-7.452-4.386-7.452s15.347-0.879,16.663,4.382   C137.989,334.786,137.547,340.047,133.165,337.856z M146.757,324.703c-0.439-2.191-18.414-7.452-18.414-7.452   c-11.399-2.191,45.159-23.676,53.927-23.676c8.768,0,8.331,12.714,7.453,16.66c-0.879,3.946-28.058,20.604-35.074,22.36   C147.633,334.35,147.196,326.894,146.757,324.703z M165.61,361.971c-3.509-1.755-6.138-10.086-9.208-10.962   s1.752-3.946,1.752-3.946c1.316,0,11.401,1.315,10.962,7.892C168.677,361.531,169.12,363.725,165.61,361.971z M174.817,343.557   c-1.315-3.507-11.837-5.262-11.837-5.262c-7.013-1.316,17.536-13.592,26.306-17.978c8.771-4.386,10.083,3.07,10.083,3.07   s1.315,8.768,5.7,14.468c4.385,5.701,0.437,10.961,0.437,10.961s-10.083,7.892-14.029,10.084c-3.946,2.19-8.768,0-10.083,0   C180.079,358.901,176.133,347.063,174.817,343.557z M192.792,398.359c-3.07-6.137-9.208-10.962-9.208-10.962l-3.07-5.697   c1.315,0,10.961-2.633,12.277,0.437c1.315,3.07,5.258,3.946,4.821,9.646C197.177,397.483,195.862,404.497,192.792,398.359z    M208.137,393.975c-3.07,0-4.822-4.383-5.262-5.697c-0.439-1.316-0.437-5.702-4.821-8.332c-4.386-2.63-6.137-9.646-6.137-9.646   c-0.437-3.073,3.946-4.822,9.207-7.892c5.261-3.07,5.697-0.876,5.697,0.878c0,1.755,2.194,7.892,7.016,16.66   c4.822,8.768,4.385,10.084,2.631,10.962C214.713,391.785,211.207,393.975,208.137,393.975z M222.168,425.105   c-5.701-5.262-7.016-9.208-7.016-9.208s3.509-4.388,8.331-2.193c4.821,2.193,5.697,3.509,5.697,6.14   S227.868,430.366,222.168,425.105z M240.143,430.803c-2.191,4.385-8.768,4.822-8.768,1.316c0-3.508,6.577-5.698,6.577-5.698   S242.334,426.418,240.143,430.803z M256.8,415.902c-3.946,4.825-6.14,6.576-10.522,1.316c-4.383-5.262-13.59-11.398-13.59-11.398   s14.026,0.878,18.851,3.069C256.363,411.081,260.746,411.079,256.8,415.902z M266.886,412.833c-5.701,0.876-4.822,0-7.453-4.822   c-2.63-4.822-0.439-5.7-3.07-4.824c-2.63,0.876-6.137,0.439-12.274-1.315c-6.137-1.754-6.576,0.439-16.223-0.437   c-9.646-0.876,10.523-10.962,10.523-10.962s72.341-47.35,99.962-65.764c27.622-18.414,50.857-22.799,62.695-24.991   c11.838-2.19,52.612,0.876,52.612,0.876c26.308-3.506-1.754,9.647-3.949,9.647c-2.194,0-96.013,51.736-100.396,55.242   C344.93,368.989,272.586,411.957,266.886,412.833z M283.545,450.096c0.876-1.315,20.605-24.555,20.605-24.555   s12.716-9.204,15.347-0.436c2.631,8.768-4.825,15.344-4.825,15.344s-23.675,32.004-24.551,34.197   c-0.876,2.194-7.013,13.153-11.399-1.315C274.338,458.863,282.669,451.411,283.545,450.096z M275.653,489.115   c-1.754,0-12.274-9.645-4.821-14.904c0,0,5.697,0.872,5.697,4.382S277.408,489.115,275.653,489.115z M289.683,526.383   c-0.876,4.386-4.825,6.579-7.892-0.876c-3.068-7.454-7.892-11.84-2.191-11.4C279.599,514.106,290.559,521.997,289.683,526.383z    M281.791,498.761c0.878-6.136,26.306-41.212,26.306-41.212s17.099-30.25,24.115-4.384c0,0,6.576,9.204,2.63,14.905   c-3.946,5.7-30.255,51.736-33.322,56.997c-3.067,5.262-3.067,2.191-5.698-5.261C293.191,512.354,280.912,504.898,281.791,498.761z    M315.988,572.411c-2.631,1.314-9.646,3.942-12.277-11.401c0,0,6.58-3.946,8.771,1.754   C314.673,568.465,318.619,571.096,315.988,572.411z M323.443,561.449c-2.194-3.07-12.274-12.277-17.099-14.468   c-4.824-2.192-8.328-2.632-7.892-6.577c0.437-3.946,37.707-62.698,39.459-64.889c0,0,4.383-7.892,7.453-1.315   s7.892,12.277,7.892,12.277s7.015,0.878,6.576,4.385c-0.44,3.506-23.678,52.175-28.061,67.079   C327.389,572.848,325.637,564.52,323.443,561.449z M349.747,600.469c-7.013-4.821-3.946-5.259-9.207-4.383s-7.45-5.261-4.383-7.017   c0,0,3.946-5.258,9.208-3.506c5.261,1.752,8.765,2.191,9.644,7.452C355.886,598.277,356.76,605.29,349.747,600.469z    M367.285,589.51c0,1.752-7.455-12.717-14.907-13.593c-7.453-0.876-17.975-0.439-17.975-0.439s14.468-57.873,23.675-65.764   c0,0,7.013-17.097,8.768-13.591c1.754,3.507,7.895,9.207,11.401,9.207c3.507,0,7.013-1.751,7.453,5.262   C386.138,517.604,367.285,587.757,367.285,589.51z M401.922,609.676c-3.509,5.262-1.754,7.014-7.016,5.262   c-5.262-1.753-14.029,4.384-12.714-2.192c0,0,6.14-10.082,11.838-7.892C399.728,607.045,405.431,604.415,401.922,609.676z    M417.706,552.682c-0.879,22.359-1.757,44.283-2.194,46.035c-0.438,1.752-1.752,2.19-7.453-0.439   c-5.7-2.63-12.716-5.264-20.168-3.07c-7.453,2.194-11.838,3.07-11.838,3.07s-1.312,4.822-0.437-7.016s13.153-65.326,13.153-65.326   s6.577-10.521,17.099-7.892C416.39,520.675,418.584,530.321,417.706,552.682z M419.021,514.106   c-14.907,3.946-19.29-7.453-21.044-13.153s31.567-42.09,31.567-42.09C429.982,468.507,428.665,513.669,419.021,514.106z    M451.024,612.745c-5.698,1.755-4.385-0.439-10.522,0.876c-6.138,1.316-8.768,2.631-8.768,0.44c0-2.192-4.385-6.578,0.876-7.893   c3.429-0.857,11.838-4.821,14.908-1.315S456.723,610.991,451.024,612.745z M459.794,592.577c-3.067,6.576-13.592,0-19.292-0.438   c-5.7-0.437-6.577,2.191-10.522,6.138s-3.507,0.439-6.138-7.016c-2.63-7.456,3.507-54.804,3.507-54.804s4.824-1.314,7.015-0.438   c2.191,0.876,10.083,8.77,14.908,6.576c4.825-2.194,7.453,7.892,10.522,13.592C462.865,561.888,462.862,586,459.794,592.577z    M469.878,543.919c-0.876-7.017-3.946-80.67-7.452-91.632s0.876-32.882,0.876-40.774c0-7.892,20.603-74.967,23.236-68.393   l6.576,5.261c0,0-1.754,26.306-3.946,46.036c-2.191,19.729-8.328,56.555-4.382,78.476s12.714,64.889,12.714,71.026   c0,6.137-3.946,0.878-15.344,1.754C470.756,546.549,470.754,550.935,469.878,543.919z M494.43,595.647   c-5.262,3.069-6.14,7.889-9.208,6.136c-3.067-1.752-4.822-4.821-4.822-4.821c0.439-1.314,4.385-8.769,9.208-6.576   C494.43,592.577,499.69,592.577,494.43,595.647z M495.748,582.493c-2.192,2.192-3.946,0-8.332-0.876s-7.016-0.878-12.276,3.946   c-5.262,4.824-2.192,1.315-3.507-9.646c-1.315-10.962,1.755-18.854,1.755-18.854c12.716-10.521,19.29-0.437,23.674,0.878   C501.448,559.258,497.938,580.302,495.748,582.493z"/>
	<path fill="#039BD3" d="M651.517,114.692c0,0-44.72,43.405-59.188,53.927c-11.315,8.231-45.974,37.389-61.159,54.731   c-4.229,4.83-6.949,8.742-7.236,11.034c-1.314,10.522,1.315,3.946-3.946,2.631c-5.261-1.315-1.314,281.473-1.314,281.473   s5.261,5.261,11.838-7.892c6.576-13.153,1.314,72.342,1.314,81.548c0,9.208,2.632,14.469,11.838,17.1   c9.208,2.631,5.262,15.784,19.729,21.045c14.469,5.262,28.937-6.576,35.513,0c6.577,6.576,9.207,18.414,24.991,14.468   s15.788-10.529,36.828-2.63c13.601,5.106,22.36-26.307,30.252-24.99c7.892,1.314,17.099,6.576,24.99-2.632   c7.892-9.206,14.468-34.198,26.306-34.198s13.153-17.098,18.415-28.936c5.261-11.838,13.152-22.36,13.152-22.36   s-3.945-14.468-2.63-23.676c1.314-9.206,9.206-22.359,2.63-36.828c-6.576-14.468-11.838-19.729-11.838-19.729l-11.837-15.783   c0,0,38.144,24.991,49.981,18.415c11.838-6.577,2.63-2.632,11.838-6.577c9.206-3.946,7.892-10.522,18.414-14.469   c10.521-3.945,21.044-3.945,24.99-13.152c3.945-9.207-5.261-15.783,6.577-19.729s14.468-7.892,24.99-21.045   c10.521-13.152,17.098-14.468,21.044-14.468s11.838-21.044,23.676-21.044s19.729-7.892,26.306-10.522   c6.576-2.631,27.622-15.784,28.938-22.36c1.314-6.578,5.261-15.784,5.261-15.784s-6.576-13.154,0-21.045   c6.576-7.892-7.892-24.991-6.576-28.937c1.315-3.946-9.208-7.892-14.469-10.522c-5.261-2.631-65.765-23.676-199.925-19.729   c-134.161,3.946-223.601,63.134-223.601,63.134l-15.784-13.153c0,0,9.208-5.262,1.315-14.469c0,0-8.331-7.452-5.701-13.153   c2.632-5.7-0.441-14.471,66.202-63.574C666.423,112.062,656.342,111.186,651.517,114.692z"/>
	<path fill="#006AAD" d="M516.483,518.488c0,0,7.892,5.261,14.469-7.892c6.577-13.153,1.315,72.342,1.315,81.548   c0,9.208,2.631,14.469,11.837,17.1c9.208,2.631,5.262,15.784,19.73,21.045c14.468,5.262,28.936-6.576,35.513,0   c6.576,6.576,9.207,18.414,24.99,14.468c15.784-3.946,17.538-8.775,36.828-2.63c13.842,4.408,22.36-26.307,30.252-24.99   c7.893,1.314,17.1,6.576,24.991-2.632c7.892-9.206,14.469-34.198,26.306-34.198s13.153-17.098,18.415-28.936   c5.26-11.838,13.152-22.36,13.152-22.36s-3.946-14.468-2.631-23.676c1.316-9.206,9.207-22.359,2.631-36.828   c-6.576-14.468-11.838-19.729-11.838-19.729l-11.838-15.783c0,0,38.144,24.991,49.981,18.415c11.838-6.577,2.63-2.632,11.838-6.577   c9.207-3.946,7.892-10.522,18.414-14.469c10.522-3.945,21.044-3.945,24.99-13.152s-5.261-15.783,6.577-19.729   s14.468-7.892,24.99-21.045c10.522-13.152,17.1-14.468,21.044-14.468c3.946,0,11.838-21.044,23.676-21.044   s19.729-7.892,26.307-10.522c6.576-2.631,27.621-15.784,28.937-22.36c1.314-6.578,5.261-15.784,5.261-15.784   s-6.576-13.154,0-21.045c6.577-7.892-7.892-24.991-6.576-28.937c1.315-3.946-9.208-7.892-14.468-10.522   c-5.262-2.631-65.766-23.676-199.926-19.729c-134.16,3.946-223.601,63.134-223.601,63.134l-15.783-13.153   c0,0,9.207-5.262,1.314-14.469c0,0-8.331-7.452-5.699-13.153c2.63-5.7-0.443-14.471,66.2-63.574   c72.781-58.749,62.701-59.625,57.877-56.118c0,0-44.721,43.405-59.189,53.927c-11.315,8.231-45.973,37.389-61.159,54.731   c-4.228,4.83-6.947,8.742-7.236,11.034c-1.314,10.522-1.314,3.946-6.576,2.631C512.537,235.7,516.483,518.488,516.483,518.488z    M984.729,257.628c0,0,1.755,1.315,1.755,3.506C986.484,263.326,982.978,259.38,984.729,257.628z M979.031,244.912   c0,0,2.191,5.262-1.314,4.825C974.21,249.299,976.401,245.79,979.031,244.912z M572.604,338.301c0,0,35.95,28.058,37.266,30.252   c1.314,2.194,4.385,3.506,4.824,14.908c0.439,11.4,10.084,31.566,12.714,38.143s30.691,53.049,33.758,56.559   c3.068,3.508,9.646,11.397,2.194,16.658c-7.452,5.262-17.099-2.63-18.854-7.016c-1.755-4.385-44.28-53.048-50.856-61.818   c-6.578-8.77-12.278-17.536-15.348-25.428c-3.07-7.892-8.768-23.238-8.768-23.238s-14.029-32.443-13.153-36.389   C557.259,336.985,572.604,338.301,572.604,338.301z M577.427,529.013c0.439-7.016,0-89.441,5.262-103.472   c0,0,11.398,14.908,14.468,21.484c3.07,6.577,1.752,42.526,3.946,49.542c2.193,7.016,3.947,21.924,3.508,24.554   c-0.438,2.632-6.14,14.469-15.346,14.029C580.057,534.711,576.987,536.029,577.427,529.013z M699.311,429.492   c0,0-0.879,13.593-2.631,16.224s-2.193,11.837-10.523,2.631c-8.328-9.208-44.72-47.352-44.72-47.352s-22.356-25.866-25.427-31.128   c-3.069-5.261,10.522,1.315,22.36,8.768S692.733,418.092,699.311,429.492z M695.804,403.626c-2.631,4.824-7.453,2.194-15.783-2.191   c-8.332-4.386-40.338-28.497-49.106-29.812c-8.768-1.316-29.372-22.363-32.004-24.554c0,0,41.212,24.114,56.996,30.69   C671.688,384.336,698.434,398.801,695.804,403.626z M687.036,466.32c-1.755,5.702-7.456,11.838-7.456,11.838   s-3.945,8.332-10.521-0.876c-6.576-9.206-46.473-65.768-49.542-89.88c-1.316-10.082,28.936,28.938,28.936,28.938   c1.974,2.636,33.322,38.144,33.322,38.144S688.79,460.621,687.036,466.32z M680.454,247.098c0,0-1.752-1.752-2.631-4.383   s3.51-2.63,3.51-2.63C685.718,241.84,680.454,247.098,680.454,247.098z M705.008,240.085c5.698,1.315,24.552,11.401,29.812,13.153   c5.262,1.752,74.096,16.659,79.357,19.29s17.536,11.398,17.536,11.398s6.137,14.468-14.469,11.838   c-20.605-2.63-47.351-10.52-61.819-7.013c-14.468,3.507-31.128,3.067-33.758,3.067c-2.632,0-92.511,0-96.457-1.315   c-3.945-1.315-37.265-2.631-37.265-2.631s-13.155-2.188,0.437-9.644c13.593-7.455,62.695-35.076,76.288-32.446   c13.592,2.631,18.414,9.649,22.799,7.456S699.311,238.77,705.008,240.085z M822.945,365.919   c-1.752,2.192-3.069,16.224-11.837,14.908c-8.769-1.315-50.855-31.13-56.995-35.076c-6.14-3.946-62.259-34.635-66.204-35.95   c-3.946-1.315-24.112-10.085-2.191-8.771c0,0,29.373-3.943,45.597,2.194c16.222,6.138,78.041,37.266,84.617,45.157   C822.508,356.273,824.698,363.728,822.945,365.919z M820.754,335.223c-2.63,0.878-6.576,3.067-10.962,0   c-4.385-3.067-61.38-31.127-61.38-31.127s-7.894-4.384,3.068-7.454s43.404,0.876,59.188,7.454   c15.784,6.576,13.593,3.948,17.538,8.33c0.882,0.979-3.506,7.89-3.506,12.274C824.7,329.086,823.386,334.344,820.754,335.223z    M812.862,252.359c13.592,6.137,2.631,11.4-3.509,12.716c-6.14,1.315-75.409-15.347-75.409-15.347s-8.77-7.013-7.016-10.083   c1.755-3.07,26.745-3.946,26.745-3.946S799.271,246.222,812.862,252.359z M835.659,242.715c-4.385,5.261-15.783-2.63-17.975-3.509   c-2.191-0.878-0.877-3.506,0-7.452c0.876-3.946,12.277-2.192,12.277-2.192C837.854,230.878,840.044,237.454,835.659,242.715z    M843.114,274.283c0,0-6.576-5.701-7.893-6.14c-1.314-0.44-3.508-3.507-1.754-10.523c1.754-7.016,10.522,0,10.522,0   s9.207,7.016,10.962,10.086S843.114,274.283,843.114,274.283z M907.125,233.945c-2.631-0.44-19.729-3.507-19.291-7.014   c0.439-3.507,23.676-0.878,23.676-0.878s6.576,0,9.207,2.631C923.348,231.314,909.755,234.384,907.125,233.945z M955.791,242.715   c-8.331-2.191-9.647-10.085-8.768-11.837c0.878-1.752,15.782,6.137,15.782,6.137C966.752,240.521,964.121,244.907,955.791,242.715z    M955.791,254.553c-0.439-3.067,11.398,2.631,11.398,2.631s5.7,3.506,1.314,6.137C964.119,265.952,956.229,257.62,955.791,254.553z    M962.806,282.174c0,0,3.508,3.507,3.068,7.892c-0.44,4.386-9.208,3.068-10.522-4.824   C954.036,277.35,962.806,282.174,962.806,282.174z M936.938,285.681c-6.14,0-8.769-5.261-12.274-7.016   c-3.508-1.755-20.169-14.029-23.676-17.099c-3.506-3.07-2.193-9.644,3.066-12.274c5.262-2.631,21.046,4.382,26.308,6.137   c5.261,1.754,17.538,9.207,20.168,15.784C953.159,277.789,936.938,285.681,936.938,285.681z M936.501,306.286   c0,0,8.767-1.752,11.398,3.946c2.63,5.698-9.208,9.208-13.593,4.386C929.922,309.795,936.501,306.286,936.501,306.286z    M922.032,310.232c-5.261,1.754-12.274,1.754-15.784-0.876c-3.509-2.63-26.744-18.414-26.744-18.414s-10.525-10.085-5.7-16.223   c4.824-6.137,20.607-3.946,31.13,1.315c10.521,5.262,25.866,10.964,28.496,14.032c2.632,3.068,3.508,3.946,2.192,5.262   c0,0-3.943,0.876-7.013,4.822C925.539,304.096,927.293,308.478,922.032,310.232z M898.794,328.646   c1.314-5.26,16.661-4.382,16.661-4.382s0.437,5.698-4.385,7.452c-4.822,1.755-4.385,3.07-8.769,5.262   C897.92,339.168,897.478,333.908,898.794,328.646z M880.818,331.716c-7.015-1.754-34.195-18.414-35.074-22.36   c-0.878-3.946-1.314-16.659,7.453-16.659c8.769,0,65.326,21.484,53.928,23.675c0,0-17.976,5.261-18.415,7.452   C888.271,326.016,887.834,333.471,880.818,331.716z M866.35,354.076c-0.438-6.576,9.647-7.892,10.962-7.892   c0,0,4.822,3.07,1.752,3.946c-3.069,0.876-5.697,9.208-9.206,10.962C866.348,362.847,866.79,360.653,866.35,354.076z    M854.073,358.022c-1.315,0-6.138,2.192-10.083,0c-3.946-2.191-14.028-10.083-14.028-10.083s-3.949-5.262,0.437-10.962   c4.385-5.7,5.7-14.468,5.7-14.468s1.312-7.455,10.083-3.07c8.771,4.385,33.318,16.662,26.306,17.978c0,0-10.521,1.754-11.838,5.261   C859.334,346.184,855.389,358.022,854.073,358.022z M837.854,390.905c-0.438-5.701,3.506-6.578,4.822-9.647   c1.314-3.07,10.96-0.437,12.276-0.437l-3.07,5.698c0,0-6.138,4.824-9.206,10.962C839.604,403.618,838.29,396.605,837.854,390.905z    M819,390.029c-1.755-0.879-2.192-2.194,2.63-10.962c4.822-8.768,7.016-14.906,7.016-16.66c0-1.754,0.437-3.948,5.698-0.878   c5.261,3.07,9.645,4.819,9.207,7.892c0,0-1.751,7.015-6.137,9.646c-4.386,2.63-4.383,7.016-4.822,8.33   c-0.439,1.315-2.191,5.698-5.262,5.698C824.261,393.096,820.754,390.907,819,390.029z M806.286,418.965   c0-2.63,0.876-3.945,5.698-6.14c4.821-2.193,8.33,2.194,8.33,2.194s-1.314,3.945-7.015,9.207   C807.599,429.487,806.286,421.596,806.286,418.965z M797.516,425.541c0,0,6.576,2.192,6.576,5.698c0,3.507-6.576,3.07-8.768-1.315   C793.133,425.539,797.516,425.541,797.516,425.541z M783.928,408.011c4.825-2.19,18.852-3.069,18.852-3.069   s-9.207,6.138-13.59,11.398c-4.382,5.261-6.576,3.509-10.522-1.315C774.722,410.2,779.104,410.202,783.928,408.011z    M686.154,364.604c-4.382-3.506-98.202-55.242-100.396-55.242c-2.193,0-30.257-13.152-3.949-9.646c0,0,40.775-3.068,52.612-0.876   c11.838,2.19,35.074,6.576,62.695,24.99c27.622,18.414,99.962,65.765,99.962,65.765s20.17,10.086,10.523,10.962   c-9.647,0.876-10.086-1.318-16.224,0.437c-6.137,1.754-9.644,2.191-12.274,1.315c-2.63-0.876-0.439,0.002-3.069,4.824   c-2.631,4.822-1.752,5.698-7.452,4.822S690.537,368.111,686.154,364.604z M756.744,472.453c-4.386,14.468-10.522,3.51-11.398,1.315   c-0.876-2.193-24.552-34.197-24.552-34.197s-7.455-6.577-4.824-15.345s15.347,0.437,15.347,0.437s19.729,23.238,20.605,24.554   C752.798,450.533,761.13,457.985,756.744,472.453z M758.938,477.715c0-3.51,5.698-4.384,5.698-4.384   c7.452,5.262-3.067,14.906-4.822,14.906C758.06,488.237,758.938,481.224,758.938,477.715z M755.868,513.228   c5.7-0.44,0.876,3.945-2.192,11.401c-3.066,7.454-7.016,5.26-7.891,0.876C744.908,521.119,755.868,513.228,755.868,513.228z    M739.646,518.928c-2.631,7.453-2.631,10.522-5.698,5.261c-3.067-5.261-29.376-51.296-33.321-56.997   c-3.946-5.7,2.63-14.904,2.63-14.904c7.016-25.866,24.114,4.382,24.114,4.382s25.428,35.076,26.306,41.214   C754.556,504.021,742.275,511.475,739.646,518.928z M722.985,561.886c2.191-5.7,8.771-1.754,8.771-1.754   c-2.63,15.344-9.646,12.716-12.277,11.4S720.794,567.586,722.985,561.886z M703.695,557.063   c-4.383-14.904-27.621-63.573-28.061-67.08c-0.438-3.506,6.576-4.385,6.576-4.385s4.821-5.7,7.892-12.276   c3.07-6.578,7.453,1.314,7.453,1.314c1.751,2.191,39.022,60.943,39.459,64.889c0.438,3.946-3.067,4.386-7.893,6.576   c-4.824,2.192-14.904,11.398-17.098,14.469C709.83,563.64,708.078,571.968,703.695,557.063z M680.46,592.138   c0.878-5.262,4.382-5.7,9.643-7.452c5.262-1.752,9.208,3.506,9.208,3.506c3.067,1.755,0.878,7.892-4.383,7.016   c-5.262-0.876-2.194-0.439-9.208,4.383C678.708,604.412,679.58,597.399,680.46,592.138z M649.769,509.714   c0.439-7.014,3.945-5.262,7.452-5.262c3.506,0,9.646-5.7,11.401-9.208c1.754-3.506,8.768,13.59,8.768,13.59   c9.207,7.893,23.675,65.766,23.675,65.766s-10.522-0.438-17.975,0.439c-7.452,0.875-14.907,15.345-14.907,13.592   C668.183,586.879,649.328,516.727,649.769,509.714z M641.437,603.976c5.698-2.192,11.838,7.892,11.838,7.892   c1.315,6.576-7.452,0.438-12.714,2.19c-5.261,1.752-3.506,0-7.016-5.261C630.036,603.536,635.738,606.166,641.437,603.976z    M629.599,517.166c10.523-2.631,17.1,7.892,17.1,7.892s12.276,53.488,13.153,65.326c0.875,11.836-0.438,7.016-0.438,7.016   s-4.386-0.876-11.838-3.07c-7.452-2.193-14.468,0.438-20.168,3.07c-5.7,2.63-7.016,2.19-7.452,0.438   c-0.438-1.752-1.315-23.676-2.194-46.036C616.883,529.442,619.077,519.796,629.599,517.166z M605.924,457.985   c0,0,33.322,36.388,31.567,42.09c-1.755,5.7-6.137,17.098-21.045,13.152C606.803,512.791,605.484,467.629,605.924,457.985z    M587.948,603.976c3.07-3.507,11.479,0.457,14.908,1.314c5.262,1.315,0.876,5.701,0.876,7.892c0,2.192-2.63,0.876-8.768-0.438   c-6.137-1.315-4.824,0.878-10.522-0.876C578.744,610.112,584.879,607.481,587.948,603.976z M575.673,555.31   c3.069-5.701,5.697-15.787,10.521-13.592c4.824,2.193,12.716-5.701,14.908-6.577c2.191-0.877,7.016,0.439,7.016,0.439   s6.137,47.348,3.506,54.804c-2.63,7.454-2.19,10.96-6.137,7.016c-3.945-3.946-4.821-6.574-10.522-6.138   c-5.7,0.437-16.226,7.014-19.292,0.437C572.604,585.122,572.603,561.01,575.673,555.31z M553.312,544.795   c-11.399-0.876-15.344,4.382-15.344-1.756c0-6.137,8.768-49.104,12.712-71.025c3.946-21.921-2.19-58.746-4.382-78.477   c-2.19-19.729-3.946-46.034-3.946-46.034l6.577-5.262c2.633-6.574,23.236,60.501,23.236,68.393s4.383,29.813,0.875,40.775   c-3.506,10.96-6.576,84.614-7.452,91.63C564.713,550.056,564.711,545.671,553.312,544.795z M545.859,589.507   c4.821-2.191,8.768,5.261,9.207,6.576c0,0-1.754,3.07-4.821,4.822s-3.946-3.067-9.207-6.138   C535.776,591.698,541.038,591.698,545.859,589.507z M538.404,557.063c4.386-1.315,10.959-11.401,23.676-0.878   c0,0,3.07,7.892,1.755,18.854c-1.316,10.961,1.754,14.471-3.507,9.646c-5.262-4.825-7.892-4.822-12.277-3.946   s-6.14,3.066-8.332,0.876C537.529,579.424,534.02,558.379,538.404,557.063z"/>
</g>
<line fill="none" stroke="#AEAFAD" stroke-width="2.6306" stroke-dasharray="10.5224" x1="517.567" y1="688.509" x2="517.567" y2="125.795"/>
</svg>